<svg id="Instagram" xmlns="http://www.w3.org/2000/svg" width="29.659" height="29.659" viewBox="0 0 29.659 29.659">
  <path id="Trazado_535" data-name="Trazado 535" d="M14.829-64.074c-4.027,0-4.532.017-6.114.089a10.9,10.9,0,0,0-3.6.689,7.271,7.271,0,0,0-2.626,1.71,7.27,7.27,0,0,0-1.71,2.627,10.878,10.878,0,0,0-.689,3.6C.017-53.777,0-53.271,0-49.244s.017,4.533.089,6.114a10.884,10.884,0,0,0,.689,3.6A7.275,7.275,0,0,0,2.489-36.9a7.271,7.271,0,0,0,2.626,1.71,10.9,10.9,0,0,0,3.6.689c1.582.072,2.087.089,6.114.089s4.532-.017,6.114-.089a10.9,10.9,0,0,0,3.6-.689,7.266,7.266,0,0,0,2.626-1.71,7.275,7.275,0,0,0,1.71-2.627,10.915,10.915,0,0,0,.69-3.6c.071-1.581.089-2.087.089-6.114s-.018-4.532-.089-6.114a10.908,10.908,0,0,0-.69-3.6,7.27,7.27,0,0,0-1.71-2.627,7.266,7.266,0,0,0-2.626-1.71,10.9,10.9,0,0,0-3.6-.689C19.361-64.057,18.857-64.074,14.829-64.074Zm0,2.672c3.96,0,4.429.015,5.993.086a8.186,8.186,0,0,1,2.753.511,4.582,4.582,0,0,1,1.7,1.109,4.594,4.594,0,0,1,1.109,1.7,8.22,8.22,0,0,1,.511,2.754c.071,1.564.086,2.033.086,5.992s-.015,4.429-.086,5.993A8.215,8.215,0,0,1,26.39-40.5a4.594,4.594,0,0,1-1.109,1.7,4.584,4.584,0,0,1-1.7,1.109,8.2,8.2,0,0,1-2.753.511c-1.564.071-2.033.086-5.993.086S10.4-37.1,8.836-37.173a8.2,8.2,0,0,1-2.753-.511,4.594,4.594,0,0,1-1.7-1.109,4.6,4.6,0,0,1-1.109-1.7,8.215,8.215,0,0,1-.511-2.753c-.071-1.564-.086-2.033-.086-5.993s.015-4.428.086-5.992a8.22,8.22,0,0,1,.511-2.754,4.6,4.6,0,0,1,1.109-1.7,4.592,4.592,0,0,1,1.7-1.109,8.186,8.186,0,0,1,2.753-.511C10.4-61.386,10.87-61.4,14.829-61.4Z" transform="translate(0 64.074)" fill="#4b4e56"/>
  <path id="Trazado_536" data-name="Trazado 536" d="M19.125-40.005a4.943,4.943,0,0,1-4.943-4.943,4.943,4.943,0,0,1,4.943-4.943,4.943,4.943,0,0,1,4.943,4.943A4.943,4.943,0,0,1,19.125-40.005Zm0-12.558a7.615,7.615,0,0,0-7.615,7.615,7.615,7.615,0,0,0,7.615,7.615,7.615,7.615,0,0,0,7.615-7.615A7.615,7.615,0,0,0,19.125-52.563Z" transform="translate(-4.296 59.778)" fill="#4b4e56"/>
  <path id="Trazado_537" data-name="Trazado 537" d="M37.009-54.1a1.779,1.779,0,0,1-1.779,1.779,1.78,1.78,0,0,1-1.78-1.779,1.78,1.78,0,0,1,1.78-1.779A1.779,1.779,0,0,1,37.009-54.1Z" transform="translate(-12.484 61.017)" fill="#4b4e56"/>
</svg>
