<svg id="LinkedIn" xmlns="http://www.w3.org/2000/svg" width="27.112" height="27.124" viewBox="0 0 27.112 27.124">
  <g id="Componente_9_1" data-name="Componente 9 – 1">
    <path id="Trazado_538" data-name="Trazado 538" d="M228.03-10.767h5.6V-28.849h-5.6Z" transform="translate(-227.493 37.891)" fill="#4b4e56"/>
    <path id="Trazado_539" data-name="Trazado 539" d="M230.482-36.6a3.324,3.324,0,0,0,3.31-3.337,3.323,3.323,0,0,0-3.31-3.336,3.323,3.323,0,0,0-3.309,3.336A3.323,3.323,0,0,0,230.482-36.6Z" transform="translate(-227.173 43.275)" fill="#4b4e56"/>
    <path id="Trazado_540" data-name="Trazado 540" d="M248.04-20.588c0-2.542,1.17-4.057,3.41-4.057,2.058,0,3.047,1.454,3.047,4.057V-11.1h5.571V-22.545c0-4.844-2.745-7.185-6.579-7.185a6.3,6.3,0,0,0-5.449,2.987v-2.435h-5.37V-11.1h5.37Z" transform="translate(-232.957 38.22)" fill="#4b4e56"/>
  </g>
</svg>
