<svg xmlns="http://www.w3.org/2000/svg" width="443.749" height="174.443" viewBox="0 0 443.749 174.443">
  <defs>
    <style>
      .cls-1 {
        fill: #ffb511;
        fill-rule: evenodd;
      }

      .cls-2 {
        fill: #4c4e56;
      }
    </style>
  </defs>
  <g id="Grupo_694" data-name="Grupo 694" transform="translate(-800.596 -198.781)">
    <g id="Grupo_588" data-name="Grupo 588" transform="translate(800.596 198.781)">
      <path id="Trazado_372" data-name="Trazado 372" class="cls-1" d="M269.125,4086.606c-4.029,2.018-7.994,4.118-11.931,6.31l-.334.19-.108.549c-2.43,12.061-7.908,23.922-16.151,32.9-4.385,4.775-9.858,9.021-16.477,8.96a13.334,13.334,0,0,1-5.345-1.181s-.627-.333-.673-.359c-.133-.082-.265-.159-.4-.242-4.577-2.875-7.836-7.953-6.876-13.781.811-4.929,3.971-9.119,7.3-12.646,8.133-8.621,18.435-15.019,28.581-20.97l.15-.087c.548-6.479-.216-13.483-5.149-18-4.58-4.2-11.548-5.016-18.092-4.693-2.02.1-5.1,2.038-4.908,5.35.595,10.151,1.557,20.256,2.75,30.33l.008,1.227a7.37,7.37,0,0,1-.783,2.3,5.584,5.584,0,0,1-8.43,1.011c-1.061-1.053-1.495-2.521-1.749-4.7q-1.2-10.328-2.029-20.656l-.015-.19a160.812,160.812,0,0,1-15.16,13.073l-1.051.611a10.5,10.5,0,0,1-1.161.364,5.462,5.462,0,0,1-5.148-8.918,22.2,22.2,0,0,1,3.388-2.757,188.016,188.016,0,0,0,18.238-16.882l-.087-2.3c-.755-20.708-.347-41.631,5.959-61.44,3.392-10.654,8.7-20.856,17.584-28.286a47.857,47.857,0,0,1,26.022-10.464c.877-.087,1.758-.155,2.643-.155,10.143.072,18.882,8.76,21.2,20.035,2.694,13.114-2.224,26.916-9.581,38.35-8.824,13.714-21.034,24.867-34.438,34.371a27.618,27.618,0,0,1,12.883,7.034c5.013,4.985,7.548,12.143,8.019,19.311,0,0,.644-.334,1.071-.56q4.08-2.134,8.2-4.159c-1.005-11.085.973-22.417,5.895-31.28,3.021-5.443,7.836-10.187,14.034-11.609,4.709-1.078,10.058-.159,13.211,3.558,3.165,3.733,3.668,9.206,2.825,14.4a46.412,46.412,0,0,1-13.419,25.088,37.71,37.71,0,0,1-8.607,6.4,8.333,8.333,0,0,1-.792.375c.032.123.063.247.1.369,1.266,4.786,3.419,10.192,7.68,11.255,1.789.447,3.713-.159,5.531-.842,6.079-2.274,11.412-6.392,16.348-10.741-3.091-9.632-4.012-20.353-1.272-29.98,1.615-5.674,4.831-11.122,9.989-13.9a16.432,16.432,0,0,1,7.888-1.915c5.87.072,11.923,2.793,14.636,7.959,2.258,4.3,1.9,9.627.426,14.279-2.046,6.465-5.794,12.266-9.947,17.642a105.888,105.888,0,0,1-7.745,8.914l-.013.015a30.139,30.139,0,0,0,10.827,12.148l.324.211a6.221,6.221,0,0,1,2.045,7.234,6.1,6.1,0,0,1-8.6,2.619l-.429-.261a41.3,41.3,0,0,1-13.034-13.643l-.05-.082-.972.785c-5.964,4.755-12.452,9.119-19.749,10.906a18.2,18.2,0,0,1-16.213-3.564c-4.212-3.558-6.829-8.7-8.456-13.9C269.377,4087.463,269.249,4087.037,269.125,4086.606Zm-25.918,14.7c-6.124,3.989-12.183,8.21-17.2,13.524-1.885,2-3.871,4.221-4.422,6.7-.246,1.1.6,2.11,1.793,2.875a3.733,3.733,0,0,0,1.293.149,10.44,10.44,0,0,0,5.06-2.649,41.32,41.32,0,0,0,9.3-11.743,66.15,66.15,0,0,0,4.2-8.867A.039.039,0,0,0,243.207,4101.306Zm87.649-50.694c-.4-1.7-5-4.7-9.808,2.064-3.82,5.371-2.7,13.186-1.525,19.86l.011.062c4.251-4.98,8.265-10.305,10.486-16.508C330.653,4054.319,331.279,4052.4,330.856,4050.612Zm-39.413-6.2c-2.111-2.315-6.538,2.265-7.98,5.14a46.408,46.408,0,0,0-4.644,19.758v.046a35.2,35.2,0,0,0,11.792-17.468C291.361,4049.437,293.094,4046.228,291.443,4044.415Zm-23.785-67.581c-1.794-2.68-5.188-4.678-11.242-4.534-8.28.195-16.02,4.708-21.788,10.993-6.5,7.086-10.077,16.338-12.339,25.308-3.635,14.418-4.325,29.529-4.147,44.445v.057c15.734-9.648,30.7-21.011,41.512-35.87,5.845-8.036,10.562-17.278,11.074-27.152C270.966,3985.491,270.291,3980.762,267.657,3976.834Z" transform="translate(-184.663 -3961.071)"/>
    </g>
    <g id="Grupo_589" data-name="Grupo 589" transform="translate(966.868 270.229)">
      <path id="Trazado_373" data-name="Trazado 373" class="cls-2" d="M1285.617,31833.045a.5.5,0,0,0-.55.564v4.938a8.368,8.368,0,0,0,1.876,5.641,6.1,6.1,0,0,0,4.859,2.256,6.447,6.447,0,0,0,4.365-1.621,7.486,7.486,0,0,0,2.377-4.158,1.376,1.376,0,0,1,1.439-1.061l9.83.424a1.468,1.468,0,0,1,.938.352,1.209,1.209,0,0,1,.275,1.059c-.515,5.148-2.391,9.1-5.635,11.918-3.244,2.75-7.771,4.09-13.589,4.09-6.036,0-10.8-1.551-14.3-4.795-3.5-3.174-5.247-7.545-5.247-13.047v-22.424c0-5.43,1.749-9.734,5.247-12.977,3.5-3.314,8.265-4.936,14.3-4.936s10.811,1.621,14.308,4.936c3.5,3.242,5.247,7.547,5.247,12.977v14.525a1.327,1.327,0,0,1-.388.986,1.445,1.445,0,0,1-.938.354Zm134.043,0a.5.5,0,0,0-.55.564v4.938a8.367,8.367,0,0,0,1.876,5.641,6.1,6.1,0,0,0,4.859,2.256,6.46,6.46,0,0,0,4.365-1.621,7.485,7.485,0,0,0,2.376-4.158,1.374,1.374,0,0,1,1.432-1.061l9.837.424a1.469,1.469,0,0,1,.938.352,1.209,1.209,0,0,1,.275,1.059c-.515,5.148-2.4,9.1-5.635,11.918-3.237,2.75-7.771,4.09-13.589,4.09-6.036,0-10.8-1.551-14.3-4.795-3.5-3.174-5.247-7.545-5.247-13.047v-22.424c0-5.43,1.749-9.734,5.247-12.977,3.5-3.314,8.265-4.936,14.3-4.936s10.811,1.621,14.308,4.936c3.5,3.242,5.247,7.547,5.247,12.977v14.525a1.327,1.327,0,0,1-.388.986,1.445,1.445,0,0,1-.938.354Zm-91.089-15.865h-10.719a1.094,1.094,0,0,1-1.213-1.342,16.754,16.754,0,0,1,5.909-12.059c3.568-3.031,8.046-4.512,13.42-4.512q8.727,0,14.139,5.076t5.416,13.328v37.588a1.2,1.2,0,0,1-.388.916,1.233,1.233,0,0,1-.938.424h-10.162a1.224,1.224,0,0,1-.938-.424,1.173,1.173,0,0,1-.388-.916v-2.115a.423.423,0,0,0-.226-.424c-.148-.07-.289,0-.437.211-2.581,3.033-6.333,4.514-11.269,4.514a18.017,18.017,0,0,1-11.1-3.6c-3.209-2.4-4.809-6.7-4.809-13.045q0-9.946,5.8-14.174c3.864-2.75,9.111-4.16,15.74-4.16h5.74a.506.506,0,0,0,.557-.566v-2.891a9.708,9.708,0,0,0-1.989-6.346,6.338,6.338,0,0,0-4.971-2.4,5.419,5.419,0,0,0-3.864,1.553,6.565,6.565,0,0,0-1.883,4.018A1.314,1.314,0,0,1,1328.57,31817.18Zm70.011,39.42H1388.42a1.223,1.223,0,0,1-.938-.424,1.173,1.173,0,0,1-.388-.916v-1.342a.42.42,0,0,0-.219-.422.317.317,0,0,0-.444.141,13.809,13.809,0,0,1-9.943,3.809q-7.394,0-11.488-4.867c-2.722-3.242-4.083-7.545-4.083-12.975v-22.424c0-5.641,1.375-10.014,4.139-13.187s6.572-4.725,11.431-4.725a15.214,15.214,0,0,1,5.19.916,12.552,12.552,0,0,1,4.753,3.031c.148.143.3.211.444.143a.421.421,0,0,0,.219-.424v-22.355a1.176,1.176,0,0,1,.388-.916,1.216,1.216,0,0,1,.938-.424h10.162a1.216,1.216,0,0,1,.938.424,1.175,1.175,0,0,1,.388.916v74.682a1.172,1.172,0,0,1-.388.916A1.223,1.223,0,0,1,1398.581,31856.6Zm118.8-38.928H1508.1a1.148,1.148,0,0,1-.938-.354,1.275,1.275,0,0,1-.388-.916v-.705a5.755,5.755,0,0,0-1.827-4.373,6.235,6.235,0,0,0-4.584-1.762,6.02,6.02,0,0,0-4.584,1.762,6.263,6.263,0,0,0-1.714,4.373,4.921,4.921,0,0,0,1.326,3.527,9.029,9.029,0,0,0,2.983,2.256q1.661.847,5.522,2.539a57.633,57.633,0,0,1,7.792,3.668,17.369,17.369,0,0,1,5.522,5.217,14.054,14.054,0,0,1,2.376,8.322,14.448,14.448,0,0,1-5.19,11.705c-3.463,2.893-8.138,4.3-14.033,4.3-5.818,0-10.458-1.41-13.913-4.16a13.973,13.973,0,0,1-5.2-11.426v-.775a1.308,1.308,0,0,1,.388-.916,1.171,1.171,0,0,1,.938-.354h9.5a1.177,1.177,0,0,1,.945.354,1.3,1.3,0,0,1,.381.916v.564a5.691,5.691,0,0,0,2.045,4.441,7.311,7.311,0,0,0,5.028,1.762,6.056,6.056,0,0,0,4.527-1.689,5.523,5.523,0,0,0,1.657-4.16,5.3,5.3,0,0,0-1.439-3.738,11.383,11.383,0,0,0-3.089-2.256q-1.661-.741-5.966-2.539a32.319,32.319,0,0,1-10.331-6.137q-4.03-3.806-4.027-11.211,0-7.723,4.915-12.059c3.272-2.893,7.715-4.373,13.307-4.373,5.747,0,10.3,1.551,13.646,4.584s5.021,7.191,5.021,12.34a1.3,1.3,0,0,1-.381.916A1.171,1.171,0,0,1,1517.378,31817.672Zm-263.763,38.785h-10.172a1.464,1.464,0,0,1-.94-.352,1.334,1.334,0,0,1-.387-.986v-53.666a1.3,1.3,0,0,1,.387-.918,1.228,1.228,0,0,1,.94-.422h10.172a1.229,1.229,0,0,1,.94.422,1.3,1.3,0,0,1,.386.918v5.078c0,.281.074.492.222.492.147.07.258-.07.331-.352q2.986-7.192,9.729-7.193a8.025,8.025,0,0,1,4.647,1.127,1.415,1.415,0,0,1,.663,1.625l-1.77,10.293c-.071.848-.592,1.129-1.544.777a11.047,11.047,0,0,0-2.877-.424,8.707,8.707,0,0,0-2.434.283,7,7,0,0,0-5.031,3.525,12.869,12.869,0,0,0-1.935,7.193v31.24a1.334,1.334,0,0,1-.386.986A1.464,1.464,0,0,1,1253.615,31856.457Zm209.217,0h-10.162a1.454,1.454,0,0,1-.938-.352,1.324,1.324,0,0,1-.388-.986v-53.666a1.289,1.289,0,0,1,.388-.918,1.221,1.221,0,0,1,.938-.422h10.162a1.221,1.221,0,0,1,.938.422,1.289,1.289,0,0,1,.388.918v5.078c0,.281.078.492.219.492.148.07.261-.07.331-.352q2.983-7.192,9.725-7.193a8.015,8.015,0,0,1,4.64,1.127,1.415,1.415,0,0,1,.663,1.625l-1.77,10.293c-.071.848-.585,1.129-1.544.777a10.965,10.965,0,0,0-2.877-.424,8.656,8.656,0,0,0-2.426.283,7.007,7.007,0,0,0-5.028,3.525,12.92,12.92,0,0,0-1.932,7.193v31.24a1.324,1.324,0,0,1-.388.986A1.454,1.454,0,0,1,1462.831,31856.457Zm-120.679-24.4h-5.74a8.975,8.975,0,0,0-6.079,2.045,7.42,7.42,0,0,0-2.32,5.924,7.005,7.005,0,0,0,1.77,5.148,6.273,6.273,0,0,0,4.527,1.691,8.911,8.911,0,0,0,5.86-2.115,7.145,7.145,0,0,0,2.539-5.854v-6.275A.5.5,0,0,0,1342.152,31832.059Zm38.313,14.385a5.914,5.914,0,0,0,4.422-1.764,7.621,7.621,0,0,0,2.207-4.582v-23.484a7.828,7.828,0,0,0-2.207-4.582,6.193,6.193,0,0,0-4.422-1.764,6.38,6.38,0,0,0-4.972,2.189,8.3,8.3,0,0,0-1.876,5.709v20.381a8.312,8.312,0,0,0,1.876,5.711A6.169,6.169,0,0,0,1380.465,31846.443Zm-88.664-36.176a6.1,6.1,0,0,0-4.859,2.256,8.37,8.37,0,0,0-1.876,5.643v4.938a.5.5,0,0,0,.55.563H1298.1a.5.5,0,0,0,.55-.562v-4.937a8.262,8.262,0,0,0-1.876-5.709A6.359,6.359,0,0,0,1291.8,31810.268Zm134.042,0a6.1,6.1,0,0,0-4.859,2.256,8.369,8.369,0,0,0-1.876,5.643v4.938a.5.5,0,0,0,.55.563h12.482a.506.506,0,0,0,.557-.562v-4.937a8.265,8.265,0,0,0-1.883-5.709A6.359,6.359,0,0,0,1425.844,31810.268Z" transform="translate(-1242.115 -31779.238)"/>
    </g>
  </g>
</svg>
