<svg xmlns="http://www.w3.org/2000/svg" width="690.744" height="278.992" viewBox="0 0 690.744 278.992">
  <g id="ByLingualHEX" transform="translate(0.008 -0.057)">
    <g id="Grupo_728" data-name="Grupo 728" transform="translate(-0.008 0.059)">
      <path id="Trazado_573" data-name="Trazado 573" d="M4290.852,49210.047c3.548-12.414,6.91-24.586,10.274-36.984,1.848-6.617,3.7-13.477,5.565-20.117.429-1.734.858-3.227,1.284-4.7.291-1.078.556-2.125.934-3.227a9.836,9.836,0,0,1,1.463-2.758,12.8,12.8,0,0,1,3.25-3.227,14.389,14.389,0,0,1,4-1.711,11.756,11.756,0,0,1,3.7-.211,11.464,11.464,0,0,1,3.594.844,12.282,12.282,0,0,1,7.242,8.555,12.1,12.1,0,0,1,.1,4.938c-.248,1.273-.7,2.594-1.054,3.867-.271,1.039-.533,1.914-.8,2.977-1.055,3.82-2.1,7.516-3.148,11.336-3,10.906-5.981,21.813-9.042,32.7-2.938,10.273-5.95,20.75-9.195,31.023-2.826,9.2-5.818,18.148-9.149,26.93a254.663,254.663,0,0,1-10.448,24.367c-1.164,2.125-2.369,4.516-3.633,6.82-1.138,1.938-2.325,4.063-3.561,5.984-7.02,11.352-15.766,21.813-26.809,29.281a40.781,40.781,0,0,1-6.417,3.859,50.941,50.941,0,0,1-10.824,4.7,77.971,77.971,0,0,1-18.436,3.875c-1.243,0-2.492.188-3.737.188h-2.162a10.91,10.91,0,0,1-2.7-.414,11.939,11.939,0,0,1-8.148-7.062,13.4,13.4,0,0,1-.824-3.633,12.505,12.505,0,0,1,.3-3.844,11.522,11.522,0,0,1,1.716-3.859,12.584,12.584,0,0,1,7.607-5.1c1.325-.227,2.673-.227,4.018-.43a26.984,26.984,0,0,0,5.69-.633,43.946,43.946,0,0,0,10.137-2.594,50.109,50.109,0,0,0,9.215-4.7c9.169-5.969,16.125-14.766,21.7-23.961,1.008-1.672,1.971-3.406,2.905-5.078,1.3-2.375,2.532-4.781,3.7-7.273,1.662-3.453,3.222-7.062,4.7-10.5,2.044-4.922,3.931-9.844,5.723-14.984h.025a42.986,42.986,0,0,1-23.079,7.7c-14.127.25-25.571-15.172-23.229-30.547,1.391-9.211,6.384-22.875,12.508-41.5,6.114-18.828,10.622-30.367,13.519-35.062.771-1.266,2.241-2.148,4.414-2.984a18.112,18.112,0,0,1,6.542-1.266c3.972-.2,6.676,1.023,8.113,3.391a19.915,19.915,0,0,1,3.735,8.578c1.335,6.414-24.238,65.82-17.486,70.758,4.4,2.961,10.509-1.734,15.423-4.7a51.835,51.835,0,0,0,10.522-8.8Zm-129.975-32.922c9.037-7.922,17.085-13.273,24.179-16.477,20.892-9.828,35.886-4.945,46.641,7.266,6.92,7.93,8.174,21.789,1.169,37.438-12.4,27.547-49.49,60.281-89.718,54.508a12.21,12.21,0,0,1,3.521-24.164c24.894,3.844,47.524-14.352,59.226-31.656,3.658-5.594,6.265-10.9,7.232-15.8a15.413,15.413,0,0,0,.345-3.039c0-.367.278-1.023-.018-1.266-4.138-4.7-10.091-5.125-18.134-1.289-13.428,6.227-30.252,21.4-51.92,48.133a12.166,12.166,0,0,1-21.106-10.922c15.086-53.406,31.184-98.352,58.3-152.859a12.159,12.159,0,0,1,21.734,10.906A768.519,768.519,0,0,0,4160.877,49177.125Z" transform="translate(-4121.832 -49060.367)" fill="#fcb512" fill-rule="evenodd"/>
    </g>
    <g id="Grupo_729" data-name="Grupo 729" transform="translate(210.177 42.274) rotate(1.088)">
      <path id="Trazado_574" data-name="Trazado 574" d="M19.281,98.567c-.541,2.7-1.261,5.226-1.8,7.748a34.289,34.289,0,0,0-.9,7.208c0,4.145,1.081,7.388,3.063,9.731s5.586,3.964,10.992,4.5l-3.784,13.695a34.72,34.72,0,0,1-12.434-2.343,19.558,19.558,0,0,1-8.289-5.406A20.4,20.4,0,0,1,1.442,125.6,36.254,36.254,0,0,1,0,115.325a49.389,49.389,0,0,1,.721-8.649c.541-3.063,1.081-6.127,1.982-9.37l22.7-94.423L42.887,0Z" transform="translate(0 0)" fill="#4c4e56"/>
    </g>
    <g id="Grupo_730" data-name="Grupo 730" transform="translate(647.857 42.274) rotate(1.088)">
      <path id="Trazado_575" data-name="Trazado 575" d="M19.281,98.567c-.541,2.7-1.261,5.226-1.8,7.748a34.289,34.289,0,0,0-.9,7.208c0,4.145,1.081,7.388,3.063,9.731s5.586,3.964,10.992,4.5l-3.784,13.695a34.72,34.72,0,0,1-12.434-2.343,19.558,19.558,0,0,1-8.289-5.406A20.4,20.4,0,0,1,1.442,125.6,36.254,36.254,0,0,1,0,115.325a49.389,49.389,0,0,1,.721-8.649c.541-3.063,1.081-6.127,1.982-9.37l22.7-94.423L42.887,0Z" transform="translate(0 0)" fill="#4c4e56"/>
    </g>
    <g id="Grupo_731" data-name="Grupo 731" transform="translate(246.164 90.421)">
      <path id="Trazado_576" data-name="Trazado 576" d="M47.194-114.539H30.435l22.525-93.7H69.718Z" transform="translate(-30.435 208.241)" fill="#4c4e56"/>
    </g>
    <g id="Grupo_732" data-name="Grupo 732" transform="translate(282.384 88.439)">
      <path id="Trazado_577" data-name="Trazado 577" d="M47.194-116.962H30.435l21.623-90.1a156.324,156.324,0,0,1,18.02-4.145A123.966,123.966,0,0,1,87.2-212.646a41.15,41.15,0,0,1,14.055,2.162,27.307,27.307,0,0,1,9.37,6.127,28.38,28.38,0,0,1,5.406,9.37,43.443,43.443,0,0,1,1.622,12.073,49.387,49.387,0,0,1-.721,8.649c-.541,3.063-1.081,6.307-1.8,9.37l-11.533,47.932H86.837l10.632-44.328c.9-3.424,1.622-6.848,2.523-10.271a48.977,48.977,0,0,0,1.081-9.911c0-4.865-1.261-8.83-3.964-12.073-2.7-3.063-7.568-4.685-14.776-4.685a70.413,70.413,0,0,0-8.83.541,50.644,50.644,0,0,0-7.208,1.441Z" transform="translate(-30.435 212.646)" fill="#4c4e56"/>
    </g>
    <g id="Grupo_733" data-name="Grupo 733" transform="translate(364.012 86.096)">
      <path id="Trazado_578" data-name="Trazado 578" d="M42.127-97.5A41.064,41.064,0,0,0,55.1-99.3a28.029,28.029,0,0,0,9.731-5.226,28.01,28.01,0,0,0,6.487-8.109,43.463,43.463,0,0,0,3.964-10.632L76-126.693a53.49,53.49,0,0,1-9.731,3.964,42.9,42.9,0,0,1-12.614,1.982c-9.731,0-17.119-2.523-22.344-7.388s-7.929-11.533-7.929-20.362A70.588,70.588,0,0,1,27.35-172.1a58.956,58.956,0,0,1,12.073-20.542,62.559,62.559,0,0,1,20.182-14.6c8.109-3.6,17.479-5.406,28.291-5.406,1.622,0,3.6.18,5.766.36,1.982.18,4.145.541,6.487.9,2.162.541,4.325,1.081,6.487,1.8a37.591,37.591,0,0,1,5.406,2.523L92.4-125.071a104.624,104.624,0,0,1-5.766,17.479,38.852,38.852,0,0,1-9.37,13.154,40.36,40.36,0,0,1-15.317,8.469c-6.307,1.982-14.055,2.883-23.425,2.883a62.645,62.645,0,0,1-15.317-1.982,57.091,57.091,0,0,1-12.794-5.226l6.307-14.055A34.687,34.687,0,0,0,27.711-99.3,53.581,53.581,0,0,0,42.127-97.5Zm15.136-37.3A32.664,32.664,0,0,0,70.6-137.5a42.356,42.356,0,0,0,9.19-4.865l13.154-54.78c-1.261-.18-2.523-.54-4.145-.721a41.206,41.206,0,0,0-4.5-.361,44.427,44.427,0,0,0-17.839,3.6,43.253,43.253,0,0,0-13.875,9.911,44.745,44.745,0,0,0-9.19,14.416,46.58,46.58,0,0,0-3.244,17.118q0,9.731,4.325,14.055C47.172-136.243,51.5-134.8,57.263-134.8Z" transform="translate(-10.412 212.646)" fill="#4c4e56"/>
    </g>
    <g id="Grupo_734" data-name="Grupo 734" transform="translate(469.607 88.079)">
      <path id="Trazado_579" data-name="Trazado 579" d="M72.162-112.2c-5.226,0-9.731-.721-13.154-2.343a22.465,22.465,0,0,1-8.649-6.307,22.244,22.244,0,0,1-4.865-9.37,47,47,0,0,1-1.442-11.533,54.992,54.992,0,0,1,.9-9.37c.541-3.063,1.081-6.127,1.8-9.19l11.533-47.932H75.045L64.413-163.913c-.541,2.7-1.442,5.947-2.343,9.731a47.5,47.5,0,0,0-1.442,11.172,22.839,22.839,0,0,0,.721,6.127,10.67,10.67,0,0,0,2.343,5.225,10.056,10.056,0,0,0,4.5,3.6,17.1,17.1,0,0,0,7.208,1.441A26.214,26.214,0,0,0,89.1-130.036a37.661,37.661,0,0,0,9.731-7.749l.541-5.946a53.4,53.4,0,0,1,1.261-6.667l13.875-57.843h16.758L117.03-148.957c-.541,2.7-1.081,5.406-1.442,7.929a41.127,41.127,0,0,0-.721,8.109,42.951,42.951,0,0,0,.721,8.289,53.149,53.149,0,0,0,2.523,9.01l-14.776,2.162c-.541-1.261-1.261-2.883-1.8-4.5a39.083,39.083,0,0,1-1.442-5.406,35.546,35.546,0,0,1-4.685,3.784,39.239,39.239,0,0,1-6.127,3.6,56.26,56.26,0,0,1-7.748,2.7A38.217,38.217,0,0,1,72.162-112.2Z" transform="translate(-44.051 208.241)" fill="#4c4e56"/>
    </g>
    <g id="Grupo_735" data-name="Grupo 735" transform="translate(557.904 86.096)">
      <path id="Trazado_580" data-name="Trazado 580" d="M99.431-115.881c-.541-1.261-1.261-2.883-1.8-4.5a41.216,41.216,0,0,1-1.442-5.045,54.164,54.164,0,0,1-10.632,7.208,35,35,0,0,1-16.4,3.6,34.122,34.122,0,0,1-13.515-2.523,21.891,21.891,0,0,1-9.37-7.028A29.357,29.357,0,0,1,41.047-134.8a46.263,46.263,0,0,1-1.8-13.515,70.786,70.786,0,0,1,4.144-23.606,58.959,58.959,0,0,1,12.073-20.542,63.364,63.364,0,0,1,20.362-14.6c8.109-3.784,17.659-5.586,28.651-5.586a70.22,70.22,0,0,1,11.352,1.081,37.015,37.015,0,0,1,11.172,3.6L113.126-151.38c-.541,2.7-1.081,5.406-1.442,7.929a38.187,38.187,0,0,0-.721,7.929,42.947,42.947,0,0,0,.721,8.289,50.509,50.509,0,0,0,2.523,9.19ZM72.582-128.855A24.762,24.762,0,0,0,85.556-132.1a43.109,43.109,0,0,0,9.37-7.568c.18-1.982.36-4.144.721-6.487a46.542,46.542,0,0,1,1.081-6.667L107.54-197.51a20.931,20.931,0,0,0-2.883-.54,29.22,29.22,0,0,0-3.784-.18,41.821,41.821,0,0,0-18.56,3.964,43.453,43.453,0,0,0-14.055,10.451,45.268,45.268,0,0,0-9.01,15.317A53.381,53.381,0,0,0,56-150.118a35.9,35.9,0,0,0,.721,7.568,19.462,19.462,0,0,0,2.7,6.848,14.525,14.525,0,0,0,5.045,4.865A14.973,14.973,0,0,0,72.582-128.855Z" transform="translate(-39.245 212.646)" fill="#4c4e56"/>
    </g>
    <g id="Grupo_736" data-name="Grupo 736" transform="translate(267.878 48.91)">
      <path id="Trazado_581" data-name="Trazado 581" d="M132.868-365.943a13.442,13.442,0,0,1-9.187-3.385c-2.659-2.176-3.868-5.319-3.868-9.429a16.757,16.757,0,0,1,4.835-12.329,15.561,15.561,0,0,1,10.879-4.352,14.531,14.531,0,0,1,9.429,3.385c2.659,2.418,3.868,5.8,3.868,9.912a14.516,14.516,0,0,1-5.077,11.6A15.62,15.62,0,0,1,132.868-365.943Z" transform="translate(-119.813 395.437)" fill="#fcb512"/>
    </g>
  </g>
</svg>
