<svg xmlns="http://www.w3.org/2000/svg" width="903.235" height="133.98" viewBox="0 0 903.235 133.98">
  <g id="Grupo_764" data-name="Grupo 764" transform="translate(-334.09 -2996.266)">
    <path id="Trazado_382" data-name="Trazado 382" d="M47.3-16.35A28.969,28.969,0,0,1,45.6-6.143a22.04,22.04,0,0,1-4.775,7.715,20.694,20.694,0,0,1-7.369,4.878,25.682,25.682,0,0,1-9.515,1.7H6.09V-40.811H23.943a25.683,25.683,0,0,1,9.515,1.7,20.694,20.694,0,0,1,7.369,4.878A22.04,22.04,0,0,1,45.6-26.522,28.863,28.863,0,0,1,47.3-16.35Zm-3.667,0a27.319,27.319,0,0,0-1.419-9.134,19.18,19.18,0,0,0-4-6.781A16.985,16.985,0,0,0,32-36.486a21.527,21.527,0,0,0-8.061-1.453H9.654V5.274H23.943A21.527,21.527,0,0,0,32,3.821,16.985,16.985,0,0,0,38.215-.4a19.18,19.18,0,0,0,4-6.781A27.433,27.433,0,0,0,43.629-16.35ZM69.994-26.833a14.18,14.18,0,0,1,5.38,1,12.09,12.09,0,0,1,4.29,2.924A13.483,13.483,0,0,1,82.5-18.184a18.746,18.746,0,0,1,1.021,6.435A1.723,1.723,0,0,1,83.3-10.71a.861.861,0,0,1-.709.277H57.711v.657a23.353,23.353,0,0,0,.9,6.816,13.965,13.965,0,0,0,2.56,4.93,10.558,10.558,0,0,0,4.013,2.993,13.279,13.279,0,0,0,5.259,1,15.738,15.738,0,0,0,4.5-.571,16.762,16.762,0,0,0,3.2-1.28A17.548,17.548,0,0,0,80.2,2.835a2.335,2.335,0,0,1,1.107-.571A.794.794,0,0,1,82,2.61l.9,1.107a9.389,9.389,0,0,1-2.2,1.938,15.681,15.681,0,0,1-3.045,1.54,22.181,22.181,0,0,1-3.6,1.021A19.8,19.8,0,0,1,70.2,8.6a16.37,16.37,0,0,1-6.435-1.228,13.641,13.641,0,0,1-4.982-3.581,16.3,16.3,0,0,1-3.2-5.761,24.874,24.874,0,0,1-1.124-7.8,21.277,21.277,0,0,1,1.055-6.833,15.648,15.648,0,0,1,3.045-5.4,13.874,13.874,0,0,1,4.878-3.546A16.026,16.026,0,0,1,69.994-26.833Zm.035,2.456a12.955,12.955,0,0,0-4.775.83,10.446,10.446,0,0,0-3.65,2.387,12.178,12.178,0,0,0-2.491,3.737,17.01,17.01,0,0,0-1.263,4.878h22.7a15.113,15.113,0,0,0-.761-4.965,10.615,10.615,0,0,0-2.145-3.719,9.286,9.286,0,0,0-3.321-2.335A10.981,10.981,0,0,0,70.028-24.377Zm41.311,2.353a.8.8,0,0,1-.761.484,1.878,1.878,0,0,1-.986-.432A15.738,15.738,0,0,0,108-22.941a12.881,12.881,0,0,0-2.422-.969,12.315,12.315,0,0,0-3.512-.432,10.3,10.3,0,0,0-3.408.536,8.453,8.453,0,0,0-2.629,1.436,6.53,6.53,0,0,0-1.7,2.093,5.473,5.473,0,0,0-.605,2.508,4.277,4.277,0,0,0,.83,2.7,7.151,7.151,0,0,0,2.18,1.834A16.639,16.639,0,0,0,99.8-11.921q1.713.554,3.512,1.107t3.512,1.228a13.221,13.221,0,0,1,3.062,1.678,7.938,7.938,0,0,1,2.18,2.456,7.008,7.008,0,0,1,.83,3.529,10.708,10.708,0,0,1-.813,4.186A9.519,9.519,0,0,1,109.73,5.62a11.278,11.278,0,0,1-3.789,2.249,14.719,14.719,0,0,1-5.121.83,15.447,15.447,0,0,1-6.262-1.159,17.581,17.581,0,0,1-4.705-3.027l.8-1.176a1.341,1.341,0,0,1,.381-.415,1.056,1.056,0,0,1,.588-.138,1.9,1.9,0,0,1,1.107.554A13.828,13.828,0,0,0,94.438,4.53a14.173,14.173,0,0,0,2.63,1.194,11.839,11.839,0,0,0,3.892.554,11.185,11.185,0,0,0,3.84-.606,7.985,7.985,0,0,0,2.768-1.643,6.848,6.848,0,0,0,1.678-2.439,7.765,7.765,0,0,0,.571-2.958,4.755,4.755,0,0,0-.83-2.872,7.118,7.118,0,0,0-2.18-1.938,15.235,15.235,0,0,0-3.062-1.349q-1.713-.554-3.529-1.107T96.686-9.845a12.763,12.763,0,0,1-3.062-1.661,8.009,8.009,0,0,1-2.18-2.439,7.061,7.061,0,0,1-.83-3.581,8.212,8.212,0,0,1,.8-3.529,8.97,8.97,0,0,1,2.266-2.975,11.145,11.145,0,0,1,3.581-2.041,13.9,13.9,0,0,1,4.74-.761,16.088,16.088,0,0,1,5.588.9,13.546,13.546,0,0,1,4.481,2.768Zm15.05-4.256V8.146H123.1V-26.28Zm1.453-11.867a2.626,2.626,0,0,1-.259,1.159,3.477,3.477,0,0,1-.675.951,3.13,3.13,0,0,1-.969.657,2.9,2.9,0,0,1-1.176.242,2.9,2.9,0,0,1-1.176-.242,3.131,3.131,0,0,1-.969-.657,3.193,3.193,0,0,1-.657-.951,2.783,2.783,0,0,1-.242-1.159,3.026,3.026,0,0,1,.242-1.194,3.077,3.077,0,0,1,.657-.986,3.131,3.131,0,0,1,.969-.657,2.9,2.9,0,0,1,1.176-.242,2.9,2.9,0,0,1,1.176.242,3.131,3.131,0,0,1,.969.657,3.325,3.325,0,0,1,.675.986A2.853,2.853,0,0,1,127.842-38.147Zm22.074,11.279a15,15,0,0,1,4.169.554,12.5,12.5,0,0,1,3.443,1.557h8.823v1.142q0,.865-.969.934l-5.224.381a10.043,10.043,0,0,1,1.488,2.958,11.6,11.6,0,0,1,.519,3.512,11,11,0,0,1-.9,4.515,10.045,10.045,0,0,1-2.508,3.46A11.457,11.457,0,0,1,154.9-5.624a14.852,14.852,0,0,1-4.982.8,15.4,15.4,0,0,1-5.4-.9,7.149,7.149,0,0,0-2.284,1.972,3.787,3.787,0,0,0-.83,2.214A2.705,2.705,0,0,0,142.443.742,6.788,6.788,0,0,0,145.194,1.9a24.557,24.557,0,0,0,3.91.467q2.2.1,4.463.225t4.463.432a14.248,14.248,0,0,1,3.91,1.09,6.9,6.9,0,0,1,2.751,2.18,6.1,6.1,0,0,1,1.038,3.719,8.5,8.5,0,0,1-1.073,4.117,10.9,10.9,0,0,1-3.1,3.494,16.343,16.343,0,0,1-4.9,2.439,21.1,21.1,0,0,1-6.435.917,24.37,24.37,0,0,1-6.366-.744,15.151,15.151,0,0,1-4.584-2.007,8.79,8.79,0,0,1-2.785-2.924,7.088,7.088,0,0,1-.934-3.529,6.743,6.743,0,0,1,1.8-4.705A11.6,11.6,0,0,1,142.3,4.029a6.5,6.5,0,0,1-2.751-1.7,4.372,4.372,0,0,1-1.021-3.079,4.631,4.631,0,0,1,.277-1.522,6.289,6.289,0,0,1,.83-1.574,8.782,8.782,0,0,1,1.332-1.47,9.321,9.321,0,0,1,1.816-1.246,10.258,10.258,0,0,1-3.823-3.771,10.756,10.756,0,0,1-1.367-5.5,11.184,11.184,0,0,1,.882-4.515,10.025,10.025,0,0,1,2.491-3.477,11.249,11.249,0,0,1,3.892-2.249A15.268,15.268,0,0,1,149.916-26.868Zm12.767,37.332a3.868,3.868,0,0,0-.848-2.612,5.606,5.606,0,0,0-2.266-1.54,13.469,13.469,0,0,0-3.27-.778q-1.851-.225-3.875-.329L148.359,5a31.006,31.006,0,0,1-3.806-.415,16.52,16.52,0,0,0-2.439,1.194,8.87,8.87,0,0,0-1.92,1.522,6.615,6.615,0,0,0-1.246,1.868,5.472,5.472,0,0,0-.45,2.232,5.382,5.382,0,0,0,.778,2.82,6.873,6.873,0,0,0,2.283,2.249,12.739,12.739,0,0,0,3.685,1.505,20.475,20.475,0,0,0,5.017.554,19.441,19.441,0,0,0,4.9-.588,13.633,13.633,0,0,0,3.944-1.661,8.465,8.465,0,0,0,2.63-2.56A5.918,5.918,0,0,0,162.683,10.464ZM149.916-7.077a11.318,11.318,0,0,0,3.944-.64A8.185,8.185,0,0,0,156.767-9.5a7.443,7.443,0,0,0,1.782-2.733,9.854,9.854,0,0,0,.605-3.529,9.747,9.747,0,0,0-.623-3.546,7.494,7.494,0,0,0-1.816-2.751,8.191,8.191,0,0,0-2.906-1.765,11.343,11.343,0,0,0-3.892-.623,11.492,11.492,0,0,0-3.91.623,8.166,8.166,0,0,0-2.924,1.765,7.494,7.494,0,0,0-1.816,2.751,9.746,9.746,0,0,0-.623,3.546,9.609,9.609,0,0,0,.623,3.529A7.524,7.524,0,0,0,143.083-9.5a8.366,8.366,0,0,0,2.924,1.782A11.21,11.21,0,0,0,149.916-7.077ZM173.478,8.146V-26.28h1.8a.936.936,0,0,1,1.038.865l.311,5.19a19.318,19.318,0,0,1,5.484-4.792,13.64,13.64,0,0,1,6.972-1.816,12.934,12.934,0,0,1,5,.9,9.179,9.179,0,0,1,3.581,2.595,11.487,11.487,0,0,1,2.145,4.083,18.523,18.523,0,0,1,.727,5.4v22h-3.287v-22q0-4.844-2.214-7.594T188.252-24.2a12,12,0,0,0-6.3,1.747,18.291,18.291,0,0,0-5.19,4.792V8.146Zm50.41-34.979a14.18,14.18,0,0,1,5.38,1,12.09,12.09,0,0,1,4.29,2.924,13.484,13.484,0,0,1,2.837,4.723,18.746,18.746,0,0,1,1.021,6.435,1.723,1.723,0,0,1-.225,1.038.861.861,0,0,1-.709.277H211.606v.657a23.353,23.353,0,0,0,.9,6.816,13.966,13.966,0,0,0,2.56,4.93,10.559,10.559,0,0,0,4.013,2.993,13.279,13.279,0,0,0,5.259,1,15.738,15.738,0,0,0,4.5-.571,16.76,16.76,0,0,0,3.2-1.28,17.545,17.545,0,0,0,2.059-1.28,2.335,2.335,0,0,1,1.107-.571.794.794,0,0,1,.692.346l.9,1.107a9.389,9.389,0,0,1-2.2,1.938,15.68,15.68,0,0,1-3.045,1.54,22.182,22.182,0,0,1-3.6,1.021A19.8,19.8,0,0,1,224.1,8.6a16.37,16.37,0,0,1-6.435-1.228,13.641,13.641,0,0,1-4.982-3.581,16.3,16.3,0,0,1-3.2-5.761,24.872,24.872,0,0,1-1.124-7.8,21.277,21.277,0,0,1,1.055-6.833,15.649,15.649,0,0,1,3.045-5.4,13.874,13.874,0,0,1,4.878-3.546A16.026,16.026,0,0,1,223.888-26.833Zm.035,2.456a12.956,12.956,0,0,0-4.775.83,10.447,10.447,0,0,0-3.65,2.387,12.178,12.178,0,0,0-2.491,3.737,17.009,17.009,0,0,0-1.263,4.878h22.7a15.113,15.113,0,0,0-.761-4.965,10.614,10.614,0,0,0-2.145-3.719,9.285,9.285,0,0,0-3.321-2.335A10.982,10.982,0,0,0,223.923-24.377ZM270.666,8.146a.93.93,0,0,1-1-.9l-.346-5.432a18.243,18.243,0,0,1-5.346,4.948A13.108,13.108,0,0,1,257.1,8.6,11.986,11.986,0,0,1,247.225,4.2Q243.679-.192,243.679-8.98a24.274,24.274,0,0,1,.986-7.041,16.72,16.72,0,0,1,2.906-5.674,13.811,13.811,0,0,1,4.705-3.789,14.242,14.242,0,0,1,6.418-1.384,13.241,13.241,0,0,1,6.055,1.3,12.681,12.681,0,0,1,4.429,3.789V-42.195H272.5V8.146ZM258.037,5.932a11.279,11.279,0,0,0,6.193-1.764,17.555,17.555,0,0,0,4.948-4.913V-18.91a12.1,12.1,0,0,0-4.411-4.152,11.948,11.948,0,0,0-5.449-1.211,12.081,12.081,0,0,0-5.328,1.107,10.489,10.489,0,0,0-3.823,3.131,14.107,14.107,0,0,0-2.318,4.844,23.3,23.3,0,0,0-.778,6.21q0,7.681,2.837,11.3A9.725,9.725,0,0,0,258.037,5.932Z" transform="translate(328 3109.263)" fill="#81807e"/>
    <path id="Trazado_383" data-name="Trazado 383" d="M4.988,8.146V-42.195H8.309v21.936A17.98,17.98,0,0,1,13.6-25.069a13.157,13.157,0,0,1,6.781-1.765,12.006,12.006,0,0,1,9.878,4.377q3.546,4.377,3.546,13.165a24.274,24.274,0,0,1-.986,7.041,16.72,16.72,0,0,1-2.906,5.674,13.81,13.81,0,0,1-4.705,3.789A14.242,14.242,0,0,1,18.793,8.6a12.858,12.858,0,0,1-6.193-1.4A12.754,12.754,0,0,1,8.136,3.06L7.929,7.281a.859.859,0,0,1-.934.865ZM19.45-24.2a11.279,11.279,0,0,0-6.193,1.765,17.554,17.554,0,0,0-4.948,4.913V.638a11.684,11.684,0,0,0,4.359,4.169A12.143,12.143,0,0,0,18.17,6,12.081,12.081,0,0,0,23.5,4.894a10.489,10.489,0,0,0,3.823-3.131A14.107,14.107,0,0,0,29.64-3.081a23.3,23.3,0,0,0,.778-6.21q0-7.681-2.837-11.3A9.725,9.725,0,0,0,19.45-24.2Z" transform="translate(619.83 3109.263)" fill="#81807e"/>
    <path id="Trazado_384" data-name="Trazado 384" d="M12.99,16.642a2.357,2.357,0,0,1-.536.8,1.332,1.332,0,0,1-.951.311H9.149L15.2,4.29.638-28.855H3.371a1.187,1.187,0,0,1,.813.26,1.667,1.667,0,0,1,.432.571L16.207-1.245q.208.519.363,1.055T16.865.9q.173-.554.363-1.09t.4-1.055L29.078-28.025a1.489,1.489,0,0,1,.484-.605,1.154,1.154,0,0,1,.692-.225H32.78Z" transform="translate(656.031 3111.838)" fill="#81807e"/>
    <path id="Trazado_375" data-name="Trazado 375" d="M604.9-47.727h-26.44a13.955,13.955,0,0,0-4.82-8.181,14.266,14.266,0,0,0-9.2-2.922,13.35,13.35,0,0,0-10.81,5.186q-4.236,5.186-4.237,15.121T553.621-23.4a13.35,13.35,0,0,0,10.81,5.186,14.266,14.266,0,0,0,9.2-2.922,13.954,13.954,0,0,0,4.82-8.181H604.9Q602.12-14.125,591.457-5.433T565.017,3.26a43.811,43.811,0,0,1-21.256-5.04,36.021,36.021,0,0,1-14.535-14.536q-5.258-9.5-5.259-22.206,0-12.856,5.186-22.279a35.544,35.544,0,0,1,14.535-14.463,44.226,44.226,0,0,1,21.328-5.04q15.774,0,26.44,8.693T604.9-47.727Z" transform="translate(435.222 3114.701)" fill="#df5b40" fill-rule="evenodd"/>
    <path id="Trazado_376" data-name="Trazado 376" d="M444.267-52.591H436.8c-12.867,1.193-18.952,5.864-20.58,18.553V3.071H391.241V-78.45H416.22v15.34a35.438,35.438,0,0,1,12.052-11.834,30.761,30.761,0,0,1,16-4.383Z" transform="translate(409.598 3114.891)" fill="#df5b40" fill-rule="evenodd"/>
    <path id="Trazado_377" data-name="Trazado 377" d="M736.159,7.232h24.98v-108.11h-24.98Z" transform="translate(476.187 3110.729)" fill="#df5b40" fill-rule="evenodd"/>
    <path id="Trazado_378" data-name="Trazado 378" d="M633.368-75.353h16.361v21.038H633.368v30.388c.506,5.593,2.727,7.968,8.33,8.618l.289,0h7.888V6.168H638.627q-14.315,0-22.277-7.086t-7.961-23.448V-54.315H597.432V-75.353h10.957V-95.368h24.979Z" transform="translate(449.404 3111.794)" fill="#df5b40" fill-rule="evenodd"/>
    <path id="Trazado_379" data-name="Trazado 379" d="M526.993,2.237H502.159V-12.518A25.469,25.469,0,0,1,492.226-.977,29.507,29.507,0,0,1,476.156,3.26a33.012,33.012,0,0,1-18.04-5.04,34.48,34.48,0,0,1-12.563-14.536q-4.6-9.5-4.6-22.206,0-12.856,4.6-22.279a34.562,34.562,0,0,1,12.563-14.463,33.011,33.011,0,0,1,18.04-5.04,29.506,29.506,0,0,1,16.069,4.237,25.468,25.468,0,0,1,9.933,11.541V-79.283h24.833Zm-42.8-60.629q-8.036,0-12.928,5.259T466.37-38.523q0,9.35,4.894,14.61t12.928,5.259A16.886,16.886,0,0,0,497.12-24.06q5.039-5.405,5.039-14.463,0-9.2-5.039-14.536A17,17,0,0,0,484.192-58.392Z" transform="translate(419.195 3114.701)" fill="#df5b40" fill-rule="evenodd"/>
    <path id="Trazado_380" data-name="Trazado 380" d="M735.634,2.237H710.8V-12.518A25.47,25.47,0,0,1,700.867-.977,29.511,29.511,0,0,1,684.8,3.26a33.008,33.008,0,0,1-18.04-5.04,34.478,34.478,0,0,1-12.563-14.536q-4.6-9.5-4.6-22.206,0-12.856,4.6-22.279a34.56,34.56,0,0,1,12.563-14.463,33.007,33.007,0,0,1,18.04-5.04,29.51,29.51,0,0,1,16.069,4.237A25.469,25.469,0,0,1,710.8-64.528V-79.283h24.834Zm-42.8-60.629q-8.034,0-12.928,5.259t-4.893,14.609q0,9.35,4.893,14.61t12.928,5.259A16.889,16.889,0,0,0,705.76-24.06q5.04-5.405,5.04-14.463,0-9.2-5.04-14.536A17,17,0,0,0,692.831-58.392Z" transform="translate(459.474 3114.701)" fill="#df5b40" fill-rule="evenodd"/>
    <path id="Trazado_381" data-name="Trazado 381" d="M314.98,9.43h28.727V-37.048H314.98Zm75.21-92.967H343.706v17.749H390.19v28.73H343.706v-28.72H314.98v-46.488h75.21Z" transform="translate(394.875 3108.531)" fill="#df5b40" fill-rule="evenodd"/>
  </g>
</svg>
