<svg id="Twitter" xmlns="http://www.w3.org/2000/svg" width="103.82" height="84.422" viewBox="0 0 103.82 84.422">
  <path id="Trazado_533" data-name="Trazado 533" d="M134.453,15.746a60.244,60.244,0,0,0,32.65,9.577c39.545,0,61.888-33.42,60.542-63.4a43.2,43.2,0,0,0,10.628-11.034,42.544,42.544,0,0,1-12.231,3.355,21.357,21.357,0,0,0,9.364-11.791,42.642,42.642,0,0,1-13.525,5.174A21.271,21.271,0,0,0,206.332-59.1a21.332,21.332,0,0,0-20.75,26.168,60.437,60.437,0,0,1-43.9-22.269,21.343,21.343,0,0,0,6.591,28.455,21.238,21.238,0,0,1-9.653-2.666A21.34,21.34,0,0,0,155.707-8.242a21.316,21.316,0,0,1-9.617.361,21.314,21.314,0,0,0,19.895,14.8A42.788,42.788,0,0,1,134.453,15.746Z" transform="translate(-134.453 59.099)" fill="#4b4e56"/>
</svg>
